<mxfile host="app.diagrams.net" modified="2023-12-26T21:58:27.494Z" agent="Mozilla/5.0 (Macintosh; Intel Mac OS X 10_15_7) AppleWebKit/605.1.15 (KHTML, like Gecko) Version/16.3 Safari/605.1.15" version="22.1.12" etag="7Nl_2g_OeCfaWq8Id7Vl" type="github">
  <diagram name="Page-1" id="CAKV08hp9nmKKD79GOcH">
    <mxGraphModel>
      <root>
        <mxCell id="0" />
        <mxCell id="1" parent="0" />
      </root>
    </mxGraphModel>
  </diagram>
</mxfile>
